<svg id="svg" version="1.1" width="800" height="450" xmlns="http://www.w3.org/2000/svg"><path d="M232.000 62.909 C 231.175 63.376,227.350 64.517,223.500 65.445 C 214.184 67.692,194.291 73.762,190.349 75.562 C 188.616 76.353,186.719 77.000,186.133 77.000 C 184.713 77.000,172.377 82.389,159.500 88.634 C 142.722 96.771,124.292 108.324,107.925 120.964 C 92.440 132.923,70.327 156.684,60.427 172.000 C 58.828 174.475,57.275 176.725,56.976 177.000 C 56.678 177.275,54.512 180.875,52.162 185.000 C 49.812 189.125,47.481 193.175,46.982 194.000 C 40.118 205.351,28.000 236.982,28.000 243.549 C 28.000 245.558,32.455 245.417,43.990 243.043 C 63.684 238.990,79.495 237.550,104.500 237.533 C 123.761 237.520,130.376 237.880,138.000 239.359 C 167.577 245.094,186.126 255.512,197.763 272.924 C 202.232 279.611,203.531 282.847,206.218 294.000 C 207.344 298.675,208.411 303.049,208.590 303.720 C 208.810 304.546,210.948 303.912,215.207 301.759 C 244.433 286.982,274.766 285.447,304.500 297.241 C 314.759 301.311,318.763 303.456,329.737 310.764 C 352.863 326.166,377.207 351.422,395.443 378.931 C 399.693 385.341,400.516 386.121,401.435 384.612 C 407.329 374.931,417.845 359.546,424.410 351.000 C 441.985 328.122,467.928 305.673,486.000 297.707 C 506.448 288.693,511.550 287.608,533.500 287.608 C 548.946 287.608,552.672 287.923,559.758 289.827 C 569.359 292.408,582.936 298.201,591.500 303.372 C 594.800 305.365,597.837 306.996,598.250 306.997 C 598.663 306.999,599.000 305.504,599.000 303.676 C 599.000 301.848,599.723 296.111,600.607 290.926 C 603.169 275.893,608.455 266.711,621.054 255.409 C 624.790 252.057,637.433 245.000,639.700 245.000 C 640.470 245.000,642.372 244.342,643.928 243.537 C 645.484 242.733,651.424 241.048,657.129 239.795 C 666.585 237.716,670.015 237.516,696.000 237.524 C 725.613 237.532,733.884 238.289,756.688 243.073 C 767.392 245.318,772.008 245.523,771.980 243.750 C 771.899 238.609,767.030 218.050,763.512 208.000 C 760.596 199.667,750.223 179.566,744.419 171.000 C 728.974 148.204,706.145 126.367,679.500 108.899 C 670.666 103.108,666.294 100.425,662.500 98.467 C 660.850 97.615,657.700 95.862,655.500 94.570 C 641.679 86.455,611.078 73.094,594.500 67.935 C 590.650 66.737,585.156 64.925,582.291 63.908 C 579.261 62.832,576.840 62.450,576.504 62.994 C 576.003 63.804,580.359 71.593,582.100 73.000 C 583.292 73.964,590.863 89.557,592.921 95.288 C 594.467 99.590,595.000 103.479,595.000 110.444 C 595.000 118.603,594.631 120.633,592.143 126.157 C 580.433 152.161,541.000 168.357,474.500 174.475 C 453.981 176.363,449.061 176.415,448.566 174.750 C 448.362 174.063,447.443 169.225,446.525 164.000 C 444.915 154.837,442.447 142.160,439.420 127.500 C 438.625 123.650,437.983 119.600,437.994 118.500 C 438.032 114.683,433.730 97.923,432.793 98.236 C 432.275 98.408,430.359 102.813,428.536 108.025 C 424.435 119.746,423.010 123.663,421.454 127.500 C 420.784 129.150,419.674 132.300,418.988 134.500 C 418.301 136.700,417.293 139.063,416.747 139.750 C 415.464 141.366,388.000 141.553,388.000 139.945 C 388.000 139.365,387.169 137.002,386.154 134.695 C 385.139 132.388,383.288 127.800,382.041 124.500 C 380.793 121.200,379.149 117.082,378.386 115.349 C 377.624 113.616,377.000 111.914,377.000 111.567 C 377.000 111.220,376.235 109.263,375.301 107.218 C 374.366 105.173,373.354 102.412,373.051 101.082 C 371.884 95.960,370.183 97.930,368.095 106.822 C 366.943 111.731,366.007 116.592,366.016 117.624 C 366.025 118.656,365.141 123.550,364.052 128.500 C 362.963 133.450,361.414 140.875,360.610 145.000 C 355.391 171.783,354.389 175.502,352.419 175.412 C 342.984 174.976,314.030 170.987,298.500 167.983 C 262.805 161.078,243.140 154.208,224.751 142.220 C 212.202 134.040,205.612 123.479,205.582 111.500 C 205.566 105.511,206.088 103.387,209.195 96.797 C 214.460 85.628,223.409 74.054,231.410 68.064 C 233.935 66.174,236.000 64.037,236.000 63.314 C 236.000 61.827,234.229 61.648,232.000 62.909 M615.000 80.428 C 641.347 91.205,677.631 111.626,695.000 125.454 C 712.112 139.077,732.363 160.289,740.860 173.492 C 748.501 185.364,756.653 202.154,760.811 214.583 C 764.045 224.248,767.404 238.930,766.571 239.762 C 766.296 240.037,762.118 239.541,757.286 238.660 C 731.550 233.965,719.445 232.824,695.178 232.805 C 674.802 232.789,667.064 233.425,654.500 236.150 C 638.449 239.632,629.437 243.403,619.974 250.600 C 605.676 261.474,598.554 273.620,596.078 291.356 C 595.551 295.127,594.915 298.418,594.664 298.669 C 594.413 298.921,590.673 297.357,586.353 295.195 C 567.267 285.639,552.115 282.527,528.500 283.312 C 512.328 283.849,506.743 284.864,492.996 289.762 C 474.235 296.447,449.539 314.497,433.157 333.500 C 423.660 344.515,412.000 359.680,412.000 361.016 C 412.000 361.557,411.617 362.000,411.149 362.000 C 410.226 362.000,404.536 370.523,401.985 375.726 L 400.403 378.953 398.521 375.726 C 392.514 365.428,372.664 341.284,361.106 330.216 C 352.996 322.450,332.932 306.649,326.426 302.904 C 315.598 296.672,311.647 294.849,301.660 291.478 C 273.302 281.907,244.997 283.111,218.456 295.020 C 213.854 297.084,211.806 297.590,211.537 296.726 C 211.327 296.052,210.611 293.025,209.944 290.000 C 209.278 286.975,207.522 281.798,206.041 278.497 C 203.339 272.470,194.908 261.034,190.734 257.734 C 189.505 256.762,186.497 254.360,184.050 252.395 C 174.966 245.105,160.601 239.484,140.500 235.356 C 133.078 233.831,126.853 233.507,105.000 233.504 C 77.780 233.500,63.142 234.774,41.750 239.009 C 36.938 239.962,33.000 240.401,33.000 239.984 C 33.000 238.102,38.670 222.574,42.671 213.500 C 55.440 184.538,68.831 165.026,91.434 142.450 C 107.158 126.745,117.539 118.337,133.500 108.381 C 145.280 101.033,173.135 86.720,182.000 83.461 C 192.217 79.704,214.730 72.208,217.812 71.536 L 221.125 70.814 216.312 76.982 C 204.928 91.573,201.686 99.464,201.757 112.411 C 201.810 122.294,203.702 127.542,209.817 134.768 C 225.800 153.659,258.397 166.271,313.500 174.885 C 336.978 178.555,354.537 180.318,356.602 179.212 C 358.130 178.394,359.264 174.331,362.422 158.348 C 371.910 110.335,371.683 111.310,372.773 114.000 C 373.331 115.375,376.125 122.350,378.983 129.500 C 381.841 136.650,384.644 143.063,385.212 143.750 C 385.962 144.657,390.733 145.000,402.599 145.000 C 421.951 145.000,419.518 146.832,426.511 127.000 C 429.130 119.575,431.613 113.121,432.029 112.657 C 432.446 112.193,433.116 114.218,433.518 117.157 C 435.620 132.516,444.981 178.373,446.168 179.125 C 448.166 180.391,458.727 180.174,477.063 178.490 C 535.615 173.112,573.677 159.455,590.505 137.786 C 597.408 128.897,599.314 121.994,598.731 108.000 C 598.213 95.567,596.326 88.864,590.117 77.401 C 588.403 74.235,587.000 71.303,587.000 70.886 C 587.000 69.896,600.495 74.495,615.000 80.428 " stroke="none" fill="#000000" fill-rule="evenodd"/></svg>